<svg width="320" height="96" viewBox="0 0 320 96" fill="none" xmlns="http://www.w3.org/2000/svg">
  <rect x="4" y="4" width="88" height="88" rx="26" fill="url(#bg)"/>
  <path d="M24 57.8L40.2 29H55.5L71.6 57.8H58.8L55.6 51.7H39.8L36.7 57.8H24ZM43.7 44.1H51.7L47.8 36.4L43.7 44.1Z" fill="#F8FAFC"/>
  <path d="M45.5 66.2C56.3 66.2 65 57.4 65 46.7C65 36 56.3 27.2 45.5 27.2C34.8 27.2 26.1 36 26.1 46.7C26.1 57.4 34.8 66.2 45.5 66.2Z" stroke="url(#ring)" stroke-width="2.5" stroke-linecap="round" stroke-dasharray="3 5"/>
  <path d="M111 36.5H121.2V41.7C123.6 37.8 127.9 35.6 133.6 35.6C143.3 35.6 150.7 43 150.7 53.2C150.7 63.4 143.2 71.1 133.4 71.1C128.1 71.1 124.1 69.2 121.8 65.8V76H111V36.5ZM130.9 61.8C136 61.8 139.9 58.2 139.9 53.1C139.9 48 136 44.6 130.9 44.6C125.8 44.6 121.9 48.1 121.9 53.1C121.9 58.1 125.7 61.8 130.9 61.8Z" fill="#0F172A"/>
  <path d="M154.5 36.5H165.4V70.2H154.5V36.5ZM160 32.5C156.5 32.5 153.9 30 153.9 26.7C153.9 23.3 156.5 20.8 160 20.8C163.5 20.8 166.1 23.3 166.1 26.7C166.1 30 163.4 32.5 160 32.5Z" fill="#0F172A"/>
  <path d="M187.7 71.1C176.8 71.1 168.8 63.8 168.8 53.4C168.8 43 176.8 35.6 187.7 35.6C195.8 35.6 202.5 39.9 205 46.9L195.7 51C194.3 47.3 191.3 44.8 187.6 44.8C182.5 44.8 179.2 48.4 179.2 53.4C179.2 58.4 182.5 61.8 187.6 61.8C191.4 61.8 194.4 59.4 195.8 55.8L205 60C202.4 66.9 195.8 71.1 187.7 71.1Z" fill="#0F172A"/>
  <path d="M208.8 36.5H219.8V50.1L231.7 36.5H244.7L232.3 50.5L245.8 70.2H233.4L225.3 58.1L219.8 64.2V70.2H208.8V36.5Z" fill="#0F172A"/>
  <defs>
    <linearGradient id="bg" x1="8" y1="8" x2="94" y2="94" gradientUnits="userSpaceOnUse">
      <stop stop-color="#0EA5E9"/>
      <stop offset="1" stop-color="#14B8A6"/>
    </linearGradient>
    <linearGradient id="ring" x1="26" y1="27.2" x2="65" y2="66.2" gradientUnits="userSpaceOnUse">
      <stop stop-color="#BAE6FD"/>
      <stop offset="1" stop-color="#CCFBF1"/>
    </linearGradient>
  </defs>
</svg>
